<svg xmlns="http://www.w3.org/2000/svg" xmlns:xlink="http://www.w3.org/1999/xlink" viewBox="330.7121887207031 245.05099487304688 359.91998291015625 60.43000411987305">
      <g fill="#3c2d49" id="text_group" transform="translate(326.92217970169065, 222.82099999999997)">
              <path d="M62.81 22.23L71.63 82.66L61.40 82.66L56.63 50.19Q56.02 45.52 55.93 44.11L55.93 44.11Q54.87 46.05 52.40 49.75L52.40 49.75L38.73 70.57L36.61 70.57L23.02 49.75Q21.08 47.02 19.32 43.93L19.32 43.93Q19.23 45.61 18.97 47.55Q18.70 49.49 18.61 50.28L18.61 50.28L14.03 82.66L3.79 82.66L12.61 22.23L15.70 22.23L33.79 49.93Q35.90 53.28 37.67 56.19L37.67 56.19Q39.43 53.28 41.55 49.93L41.55 49.93L59.72 22.23L62.81 22.23ZM100.57 73.48L128.71 73.48L128.71 82.66L90.16 82.66L90.16 22.67L127.91 22.67L127.91 31.85L100.57 31.85L100.57 47.72L124.47 47.72L124.47 56.63L100.57 56.63L100.57 73.48ZM147.14 82.66L147.14 22.67L157.55 22.67L157.55 73.04L183.58 73.04L183.58 82.66L147.14 82.66ZM229.01 22.67L240.83 22.67L240.83 22.94L218.95 56.63L218.95 82.66L208.54 82.66L208.54 56.63L186.67 22.94L186.67 22.67L198.49 22.67L209.25 39.61Q211.45 43.14 213.84 47.90L213.84 47.90Q215.34 44.46 218.33 39.61L218.33 39.61L229.01 22.67ZM256.97 82.66L256.97 22.67L267.38 22.67L267.38 73.04L293.41 73.04L293.41 82.66L256.97 82.66ZM335.49 22.32L363.71 82.39L363.71 82.66L352.86 82.66L347.92 71.81L319.78 71.81L314.93 82.66L303.99 82.66L303.99 82.48L332.31 22.32L335.49 22.32ZM333.90 39.08Q331.96 44.37 329.84 49.31L329.84 49.31L323.31 63.60L344.48 63.60L337.96 49.31Q335.49 43.84 333.90 39.08L333.90 39.08Z"></path>
          </g>
  </svg>